<svg xmlns="http://www.w3.org/2000/svg" xmlns:xlink="http://www.w3.org/1999/xlink" width="24" height="24" preserveAspectRatio="xMidYMid meet" viewBox="0 0 24 24"><g fill="none" fill-rule="evenodd" stroke="currentColor" stroke-linecap="round" stroke-linejoin="round" stroke-width="1.5" transform="translate(4 4)"><line x1="7" y1="13.5" y2="13.5" opacity="0.400000006"/><path d="M16,13.5 C16,14.880719 14.880719,16 13.5,16 C12.119281,16 11,14.880719 11,13.5 C11,12.1182598 12.119281,11 13.5,11 C14.880719,11 16,12.1182598 16,13.5 Z"/><line x1="9" x2="16" y1="2.5" y2="2.5" opacity="0.400000006"/><path d="M0,2.5 C0,3.8817402 1.11928105,5 2.5,5 C3.88071895,5 5,3.8817402 5,2.5 C5,1.11928105 3.88071895,0 2.5,0 C1.11928105,0 0,1.11928105 0,2.5 Z"/></g></svg>