<svg xmlns="http://www.w3.org/2000/svg" xmlns:xlink="http://www.w3.org/1999/xlink" width="24" height="24" preserveAspectRatio="xMidYMid meet" viewBox="0 0 24 24"><g fill="none" fill-rule="evenodd" stroke="currentColor" stroke-linecap="round" stroke-linejoin="round" stroke-width="1.5" transform="translate(2 2)"><path d="M14.3344,0.7502 L5.6654,0.7502 C2.6444,0.7502 0.7504,2.8892 0.7504,5.9162 L0.7504,14.0842 C0.7504,17.1112 2.6354,19.2502 5.6654,19.2502 L14.3334,19.2502 C17.3644,19.2502 19.2504,17.1112 19.2504,14.0842 L19.2504,5.9162 C19.2504,2.8892 17.3644,0.7502 14.3344,0.7502 Z" opacity="0.400000006"/><path d="M8.6923,10.0002 C8.6923,11.0222 7.8633,11.8522 6.8403,11.8522 C5.8183,11.8522 4.9893,11.0222 4.9893,10.0002 C4.9893,8.9782 5.8183,8.1482 6.8403,8.1482 C7.8633,8.1482 8.6923,8.9782 8.6923,10.0002 Z"/><polyline points="8.6923 10.0002 15.0103 10.0002 15.0103 11.8522"/><line x1="12.1816" x2="12.1816" y1="11.8517" y2="9.9997"/></g></svg>