<svg xmlns="http://www.w3.org/2000/svg" xmlns:xlink="http://www.w3.org/1999/xlink" width="24" height="24" preserveAspectRatio="xMidYMid meet" viewBox="0 0 24 24"><g fill="none" fill-rule="evenodd" stroke="currentColor" stroke-linecap="round" stroke-linejoin="round" stroke-width="1.5" transform="translate(3.5 2)"><path d="M15.3651,3.1238 C15.8021,3.2768 16.0941,3.6888 16.0941,4.1518 L16.0941,10.9248 C16.0941,12.8178 15.4051,14.6248 14.1911,16.0248 C13.5791,16.7298 12.8071,17.2788 11.9861,17.7228 L8.4281,19.6448 L4.8641,17.7218 C4.0411,17.2778 3.2681,16.7298 2.6561,16.0238 C1.4401,14.6238 0.7501,12.8158 0.7501,10.9208 L0.7501,4.1518 C0.7501,3.6888 1.0421,3.2768 1.4791,3.1238 L8.0611,0.8108 C8.2951,0.7288 8.5501,0.7288 8.7831,0.8108 L15.3651,3.1238 Z"/><path d="M10.3011,11.8464 L6.5431,8.0884 M6.5433,11.8464 L10.3013,8.0884" opacity="0.400000006"/></g></svg>