<svg xmlns="http://www.w3.org/2000/svg" xmlns:xlink="http://www.w3.org/1999/xlink" width="24" height="24" preserveAspectRatio="xMidYMid meet" viewBox="0 0 24 24"><path fill="currentColor" d="M9.50975359,0 C11.9286448,0 13.889117,2 13.9183778,4.47 L13.9183778,4.47 L14.1232033,4.47 C16.8151951,4.47 19,6.72 19,9.48 L19,9.48 L19,15 C19,17.76 16.8151951,20 14.1232033,20 L14.1232033,20 L4.87679671,20 C2.18480493,20 0,17.76 0,15 L0,15 L0,9.48 C0,6.72 2.18480493,4.47 4.87679671,4.47 L4.87679671,4.47 L5.08162218,4.47 C5.10112936,3.27 5.55954825,2.15 6.3886037,1.31 C7.22741273,0.46 8.30030801,0.03 9.50975359,0 Z M13.2063655,5.66 C12.8064682,5.66 12.474846,6 12.474846,6.41 L12.474846,6.41 L12.474846,7.57 C12.474846,7.98 12.8064682,8.32 13.2063655,8.32 C13.6160164,8.32 13.937885,7.98 13.937885,7.57 L13.937885,7.57 L13.937885,6.41 C13.937885,6 13.6160164,5.66 13.2063655,5.66 Z M5.70585216,5.66 C5.30595483,5.66 4.97433265,6 4.97433265,6.41 L4.97433265,6.41 L4.97433265,7.57 C4.97433265,7.98 5.30595483,8.32 5.70585216,8.32 C6.11550308,8.32 6.43737166,7.98 6.43737166,7.57 L6.43737166,7.57 L6.43737166,6.41 C6.43737166,6 6.11550308,5.66 5.70585216,5.66 Z M9.50975359,1.5 C8.7587269,1.5 7.97843943,1.81 7.41273101,2.38 C6.86652977,2.94 6.56416838,3.68 6.54466119,4.47 L6.54466119,4.47 L12.4553388,4.47 C12.426078,2.83 11.1190965,1.5 9.50975359,1.5 Z" transform="translate(2.5 2)"/></svg>