<svg xmlns="http://www.w3.org/2000/svg" xmlns:xlink="http://www.w3.org/1999/xlink" width="24" height="24" preserveAspectRatio="xMidYMid meet" viewBox="0 0 24 24"><path fill="currentColor" d="M14.34,2.84217094e-14 C17.73,2.84217094e-14 20,2.38 20,5.92 L20,5.92 L20,14.091 C20,17.621 17.73,20 14.34,20 L14.34,20 L5.67,20 C2.28,20 0,17.621 0,14.091 L0,14.091 L0,5.92 C0,2.38 2.28,2.84217094e-14 5.67,2.84217094e-14 L5.67,2.84217094e-14 Z M9.99,8.481 C9.51,8.481 9.12,8.88 9.12,9.361 L9.12,9.361 L9.12,13.781 C9.12,14.261 9.51,14.651 9.99,14.651 C10.48,14.651 10.87,14.261 10.87,13.781 L10.87,13.781 L10.87,9.361 C10.87,8.88 10.48,8.481 9.99,8.481 Z M10.01,5.311 C9.52,5.311 9.13,5.701 9.13,6.191 C9.13,6.67 9.52,7.061 9.99,7.061 C10.49,7.061 10.88,6.67 10.88,6.191 C10.88,5.701 10.49,5.311 10.01,5.311 Z" transform="translate(2 2)"/></svg>