<svg xmlns="http://www.w3.org/2000/svg" xmlns:xlink="http://www.w3.org/1999/xlink" width="24" height="24" preserveAspectRatio="xMidYMid meet" viewBox="0 0 24 24"><path fill="currentColor" d="M10,0 C15.53,0 20,4.48 20,10 C20,15.53 15.53,20 10,20 C4.48,20 0,15.53 0,10 C0,4.48 4.48,0 10,0 Z M9.65,4.93 C9.24,4.93 8.9,5.26 8.9,5.68 L8.9,5.68 L8.9,10.73 C8.9,10.99 9.04,11.23 9.27,11.37 L9.27,11.37 L13.19,13.71 C13.31,13.78 13.44,13.82 13.58,13.82 C13.83,13.82 14.08,13.69 14.22,13.45 C14.43,13.1 14.32,12.64 13.96,12.42 L13.96,12.42 L10.4,10.3 L10.4,5.68 C10.4,5.26 10.06,4.93 9.65,4.93 Z" transform="translate(2 2)"/></svg>