<svg xmlns="http://www.w3.org/2000/svg" xmlns:xlink="http://www.w3.org/1999/xlink" width="24" height="24" preserveAspectRatio="xMidYMid meet" viewBox="0 0 24 24"><g fill="none" fill-rule="evenodd" stroke="currentColor" stroke-linecap="round" stroke-linejoin="round" stroke-width="1.5" transform="translate(2.5 1.5)"><path d="M14.01373,20.0000001 L5.66590392,20.0000001 C2.59954235,20.0000001 0.247139589,18.8924486 0.915331812,14.4347827 L1.69336385,8.39359272 C2.10526317,6.16933642 3.52402748,5.31807783 4.76887874,5.31807783 L14.9473685,5.31807783 C16.2105264,5.31807783 17.5469108,6.23340964 18.0228834,8.39359272 L18.8009154,14.4347827 C19.3684211,18.3890161 17.0800916,20.0000001 14.01373,20.0000001 Z"/><path d="M14.1510298,5.09839819 C14.1510298,2.71232585 12.216736,0.7779932 9.83066366,0.7779932 L9.83066366,0.7779932 C8.68166274,0.773163349 7.57805185,1.22619323 6.76386233,2.03694736 C5.9496728,2.84770148 5.49199087,3.94938696 5.49199087,5.09839819 L5.49199087,5.09839819"/><line x1="12.7963387" x2="12.7505721" y1="9.60183071" y2="9.60183071"/><line x1="6.96567509" x2="6.9199085" y1="9.60183071" y2="9.60183071"/></g></svg>