<svg xmlns="http://www.w3.org/2000/svg" xmlns:xlink="http://www.w3.org/1999/xlink" width="24" height="24" preserveAspectRatio="xMidYMid meet" viewBox="0 0 24 24"><g fill="none" fill-rule="evenodd" stroke="currentColor" stroke-linecap="round" stroke-linejoin="round" stroke-width="1.5" transform="translate(3 2)"><line x1="0.0926400664" x2="17.9165888" y1="7.40425532" y2="7.40425532"/><line x1="13.4420736" x2="13.4513376" y1="11.3096927" y2="11.3096927"/><line x1="9.00461445" x2="9.01387846" y1="11.3096927" y2="11.3096927"/><line x1="4.55789127" x2="4.56715527" y1="11.3096927" y2="11.3096927"/><line x1="13.4420736" x2="13.4513376" y1="15.1962175" y2="15.1962175"/><line x1="9.00461445" x2="9.01387846" y1="15.1962175" y2="15.1962175"/><line x1="4.55789127" x2="4.56715527" y1="15.1962175" y2="15.1962175"/><line x1="13.0437213" x2="13.0437213" y1="-2.26485497e-14" y2="3.29078014"/><line x1="4.96550756" x2="4.96550756" y1="-2.26485497e-14" y2="3.29078014"/><path d="M13.2382655,1.57919622 L4.77096342,1.57919622 C1.83427331,1.57919622 0,3.21513002 0,6.22222222 L0,15.2718676 C0,18.3262411 1.83427331,20 4.77096342,20 L13.2290015,20 C16.1749556,20 18,18.3546099 18,15.3475177 L18,6.22222222 C18.0092289,3.21513002 16.1842196,1.57919622 13.2382655,1.57919622 Z"/></g></svg>