<svg xmlns="http://www.w3.org/2000/svg" xmlns:xlink="http://www.w3.org/1999/xlink" width="24" height="24" preserveAspectRatio="xMidYMid meet" viewBox="0 0 24 24"><g fill="none" fill-rule="evenodd" stroke="currentColor" stroke-linecap="round" stroke-linejoin="round" stroke-width="1.5" transform="translate(3.5 2)"><path d="M11.2378,0.761771171 L4.5848,0.761771171 C2.5048,0.7538 0.7998,2.4118 0.7508,4.4908 L0.7508,15.2038 C0.7048,17.3168 2.3798,19.0678 4.4928,19.1148 C4.5238,19.1148 4.5538,19.1158 4.5848,19.1148 L12.5738,19.1148 C14.6678,19.0298 16.3178,17.2998 16.3029015,15.2038 L16.3029015,6.0378 L11.2378,0.761771171 Z"/><path d="M10.9751,0.75 L10.9751,3.659 C10.9751,5.079 12.1231,6.23 13.5431,6.234 L16.2981,6.234"/><line x1="10.7881" x2="5.3881" y1="13.3585" y2="13.3585"/><line x1="8.7432" x2="5.3872" y1="9.606" y2="9.606"/></g></svg>