<svg xmlns="http://www.w3.org/2000/svg" xmlns:xlink="http://www.w3.org/1999/xlink" width="24" height="24" preserveAspectRatio="xMidYMid meet" viewBox="0 0 24 24"><g fill="none" fill-rule="evenodd" stroke="currentColor" stroke-linecap="round" stroke-linejoin="round" stroke-width="1.5" transform="translate(3.5 2)"><path d="M11.2372,0.7619 L4.4792,0.7619 C2.4192,0.7619 0.7502,2.4319 0.7502,4.4909 L0.7502,15.3399 C0.7622,17.4389 2.4732,19.1299 4.5722,19.1169745 C4.6122,19.1169745 4.6512,19.1159 4.6902,19.1149 L12.5732,19.1149 C14.6412,19.0939 16.3062,17.4089 16.3022072,15.3399 L16.3022072,6.0399 L11.2372,0.7619 Z"/><path d="M10.974,0.7502 L10.974,3.6592 C10.974,5.0792 12.122,6.2302 13.542,6.2342 L16.297,6.2342"/><line x1="10.0761" x2="6.6101" y1="12.6481" y2="9.1821"/><line x1="6.6112" x2="10.0772" y1="12.6481" y2="9.1821"/></g></svg>