<svg xmlns="http://www.w3.org/2000/svg" xmlns:xlink="http://www.w3.org/1999/xlink" width="24" height="24" preserveAspectRatio="xMidYMid meet" viewBox="0 0 24 24"><g fill="none" fill-rule="evenodd" stroke="currentColor" stroke-linecap="round" stroke-linejoin="round" stroke-width="1.5" transform="translate(1.5 3.35)"><line x1="21" y1="9.4555" y2="9.4555"/><path d="M19.1299,5.245 L19.1299,3.732 C19.1299,1.671 17.4589,1.77635684e-15 15.3969,1.77635684e-15 L14.1919,1.77635684e-15"/><path d="M1.8701,5.245 L1.8701,3.732 C1.8701,1.671 3.5411,1.77635684e-15 5.6031,1.77635684e-15 L6.8391,1.77635684e-15"/><path d="M19.1299,9.4545 L19.1299,13.5285 C19.1299,15.5905 17.4589,17.2615 15.3969,17.2615 L14.1919,17.2615"/><path d="M1.8701,9.4545 L1.8701,13.5285 C1.8701,15.5905 3.5411,17.2615 5.6031,17.2615 L6.8391,17.2615"/></g></svg>