<svg xmlns="http://www.w3.org/2000/svg" xmlns:xlink="http://www.w3.org/1999/xlink" width="24" height="24" preserveAspectRatio="xMidYMid meet" viewBox="0 0 24 24"><g fill="none" fill-rule="evenodd" stroke="currentColor" stroke-linecap="round" stroke-linejoin="round" stroke-width="1.5" transform="translate(2.3 5)"><path d="M13.9968329,10.5383104 C14.0777257,12.3703766 12.599129,13.9196009 10.6945655,13.9974564 C10.5542831,14.0033694 3.71526168,13.9895723 3.71526168,13.9895723 C1.81991377,14.133457 0.161100366,12.7714799 0.0116023677,10.9463123 C0.000338819853,10.8103117 0.00341069653,3.47219182 0.00341069653,3.47219182 C-0.0805539327,1.63815461 1.39599479,0.0849882318 3.30158229,0.00417627553 C3.44391258,-0.00272230611 10.2737184,0.0100893455 10.2737184,0.0100893455 C12.1782819,-0.131824334 13.8422151,1.2400079 13.9896652,3.0740451 C14,3.20610367 13.9968329,10.5383104 13.9968329,10.5383104 Z"/><path d="M14,4.97983717 L17.293,2.28483717 C18.109,1.61683717 19.333,2.19883717 19.3320006,3.25183717 L19.32,10.6008372 C19.319,11.6538372 18.094,12.2308372 17.28,11.5628372 L14,8.86783717"/></g></svg>