<svg xmlns="http://www.w3.org/2000/svg" xmlns:xlink="http://www.w3.org/1999/xlink" width="24" height="24" preserveAspectRatio="xMidYMid meet" viewBox="0 0 24 24"><g fill="none" fill-rule="evenodd" stroke="currentColor" stroke-linecap="round" stroke-linejoin="round" stroke-width="1.5" transform="translate(3.65 2.85)"><path d="M2.044,3.58024493 C7.3705141,2.243 13.9926469,2.32498848 15.5231061,4.06777179 C17.0535652,5.8105551 17.0220031,11.638 15.2330031,13.237 C13.4450031,14.836 5.68,14.988 3.22,13.237 C0.621,11.386 2.129,5.692 2.044,2.243 C2.095,0.313 -1.13686838e-13,0 -1.13686838e-13,0"/><line x1="10.5059" x2="13.2789" y1="7.8696" y2="7.8696"/><path fill="currentColor" d="M3.6138,17.2773 C3.9138,17.2773 4.1578,17.5213 4.1578,17.8213 C4.1578,18.1223 3.9138,18.3663 3.6138,18.3663 C3.3128,18.3663 3.0688,18.1223 3.0688,17.8213 C3.0688,17.5213 3.3128,17.2773 3.6138,17.2773 Z"/><path fill="currentColor" d="M13.9453,17.2773 C14.2463,17.2773 14.4903,17.5213 14.4903,17.8213 C14.4903,18.1223 14.2463,18.3663 13.9453,18.3663 C13.6453,18.3663 13.4013,18.1223 13.4013,17.8213 C13.4013,17.5213 13.6453,17.2773 13.9453,17.2773 Z"/></g></svg>