<svg xmlns="http://www.w3.org/2000/svg" xmlns:xlink="http://www.w3.org/1999/xlink" width="24" height="24" preserveAspectRatio="xMidYMid meet" viewBox="0 0 24 24"><g fill="none" fill-rule="evenodd" stroke="currentColor" stroke-linecap="round" stroke-linejoin="round" stroke-width="1.5" transform="translate(2.75 2.05)"><path d="M-1.0658141e-14,10.7255 C-1.0658141e-14,3.7695 2.319,1.4515 9.274,1.4515 C16.23,1.4515 18.549,3.7695 18.549,10.7255 C18.549,17.6815 16.23,19.9995 9.274,19.9995 C2.319,19.9995 -1.0658141e-14,17.6815 -1.0658141e-14,10.7255 Z"/><line x1="0.2754" x2="18.2834" y1="7.2739" y2="7.2739"/><line x1="13.6787" x2="13.6877" y1="11.2109" y2="11.2109"/><line x1="9.2793" x2="9.2883" y1="11.2109" y2="11.2109"/><line x1="4.8716" x2="4.8806" y1="11.2109" y2="11.2109"/><line x1="13.6787" x2="13.6877" y1="15.0629" y2="15.0629"/><line x1="9.2793" x2="9.2883" y1="15.0629" y2="15.0629"/><line x1="4.8716" x2="4.8806" y1="15.0629" y2="15.0629"/><line x1="13.2832" x2="13.2832" y1="2.84217094e-14" y2="3.262"/><line x1="5.2749" x2="5.2749" y1="2.84217094e-14" y2="3.262"/></g></svg>