<svg xmlns="http://www.w3.org/2000/svg" xmlns:xlink="http://www.w3.org/1999/xlink" width="24" height="24" preserveAspectRatio="xMidYMid meet" viewBox="0 0 24 24"><g fill="none" fill-rule="evenodd" stroke="currentColor" stroke-linecap="round" stroke-linejoin="round" stroke-width="1.5" transform="translate(2 1.977)"><line x1="7.25474269" x2="7.25474269" y1="10.085022" y2="13.6602214"/><line x1="9.07928848" x2="5.431535" y1="11.8722397" y2="11.8722397"/><line x1="13.477308" x2="13.3751594" y1="10.1936617" y2="10.1936617"/><line x1="15.208106" x2="15.1059574" y1="13.6058057" y2="13.6058057"/><path d="M6.5140228,0.238664844 L6.5140228,0.238664844 C6.52070542,0.952750059 7.10591161,1.52554569 7.81999683,1.51886307 L8.82811713,1.51886307 C9.93074871,1.51027114 10.8329018,2.39428572 10.8481764,3.4969173 L10.8481764,4.50408295"/><path d="M19.8121415,11.9178722 C19.8121415,6.35793599 17.4254931,4.50398748 10.2645931,4.50398748 C3.10273844,4.50398748 0.716089999,6.35793599 0.716089999,11.9178722 C0.716089999,17.4787631 3.10273844,19.3317569 10.2645931,19.3317569 C17.4254931,19.3317569 19.8121415,17.4787631 19.8121415,11.9178722 Z"/></g></svg>