<svg xmlns="http://www.w3.org/2000/svg" xmlns:xlink="http://www.w3.org/1999/xlink" width="24" height="24" preserveAspectRatio="xMidYMid meet" viewBox="0 0 24 24"><g fill="none" fill-rule="evenodd" stroke="currentColor" stroke-linecap="round" stroke-linejoin="round" stroke-width="1.5" transform="translate(2 2)"><path d="M0.75,10.0001 C0.75,16.9371 3.063,19.2501 10,19.2501 C16.937,19.2501 19.25,16.9371 19.25,10.0001 C19.25,3.0631 16.937,0.7501 10,0.7501 C3.063,0.7501 0.75,3.0631 0.75,10.0001 Z"/><path d="M8.5986,6.7842 C8.5986,7.7572 7.8106,8.5452 6.8376,8.5452 C5.8656,8.5452 5.0766,7.7572 5.0766,6.7842 C5.0766,5.8112 5.8656,5.0232 6.8376,5.0232 C7.8106,5.0232 8.5986,5.8112 8.5986,6.7842 Z"/><path d="M19.1201,12.6666 C18.2391,11.7606 16.9931,9.9296 14.7041,9.9296 C12.4151,9.9296 12.3651,13.9676 10.0291,13.9676 C7.6921,13.9676 6.7511,12.5966 5.2281,13.3126 C3.7061,14.0276 2.4661,16.8736 2.4661,16.8736"/></g></svg>