<svg xmlns="http://www.w3.org/2000/svg" xmlns:xlink="http://www.w3.org/1999/xlink" width="24" height="24" preserveAspectRatio="xMidYMid meet" viewBox="0 0 24 24"><g fill="none" fill-rule="evenodd" stroke="currentColor" stroke-linecap="round" stroke-linejoin="round" stroke-width="1.5" transform="translate(1 3)"><path d="M10.9725,17.3682 C7.7335,17.3682 4.9665,16.8782 4.9665,14.9162 C4.9665,12.9542 7.7155,11.2462 10.9725,11.2462 C14.2115,11.2462 16.9785,12.9382 16.9785,14.8992 C16.9785,16.8602 14.2295,17.3682 10.9725,17.3682 Z"/><path d="M10.9725,8.4487 C13.0985,8.4487 14.8225,6.7257 14.8225,4.5997 C14.8225,2.4737 13.0985,0.7497 10.9725,0.7497 C8.8465,0.7497 7.12248426,2.4737 7.12248426,4.5997 C7.1165,6.7177 8.8265,8.4417 10.9455,8.4487 L10.9725,8.4487 Z"/><path d="M17.3622,7.3916 C18.5992,7.0606 19.5112,5.9326 19.5112,4.5896 C19.5112,3.1886 18.5182,2.0186 17.1962,1.7486"/><path d="M17.9432,10.5444 C19.6972,10.5444 21.1952,11.7334 21.1952,12.7954 C21.1952,13.4204 20.6782,14.1014 19.8942,14.2854"/><path d="M4.5838,7.3916 C3.3458,7.0606 2.4338,5.9326 2.4338,4.5896 C2.4338,3.1886 3.4278,2.0186 4.7488,1.7486"/><path d="M4.0018,10.5444 C2.2478,10.5444 0.7498,11.7334 0.7498,12.7954 C0.7498,13.4204 1.2668,14.1014 2.0518,14.2854"/></g></svg>